<mxfile host="Electron" modified="2023-11-27T17:01:43.371Z" agent="Mozilla/5.0 (Windows NT 10.0; Win64; x64) AppleWebKit/537.36 (KHTML, like Gecko) draw.io/22.1.2 Chrome/114.0.5735.289 Electron/25.9.4 Safari/537.36" etag="GE8OWVCekGjv9JNCyRwu" version="22.1.2" type="device" pages="2">
  <diagram name="Page-1" id="k43ublVHj7JkEpxlusbi">
    <mxGraphModel dx="1236" dy="529" grid="1" gridSize="10" guides="1" tooltips="1" connect="1" arrows="1" fold="1" page="1" pageScale="1" pageWidth="850" pageHeight="1100" math="0" shadow="0">
      <root>
        <mxCell id="0" />
        <mxCell id="1" parent="0" />
        <mxCell id="x6IcwjUYLpQTEdXVN8Zu-20" value="" style="rounded=0;whiteSpace=wrap;html=1;fillColor=none;dashed=1;fontStyle=1" parent="1" vertex="1">
          <mxGeometry x="250" y="484" width="360" height="200" as="geometry" />
        </mxCell>
        <mxCell id="x6IcwjUYLpQTEdXVN8Zu-7" value="" style="rounded=0;whiteSpace=wrap;html=1;fillColor=none;dashed=1;fontStyle=1" parent="1" vertex="1">
          <mxGeometry x="890" y="317.5" width="190" height="162.5" as="geometry" />
        </mxCell>
        <mxCell id="x6IcwjUYLpQTEdXVN8Zu-2" value="" style="rounded=0;whiteSpace=wrap;html=1;fillColor=none;dashed=1;fontStyle=1" parent="1" vertex="1">
          <mxGeometry x="1100" y="221" width="180" height="180" as="geometry" />
        </mxCell>
        <mxCell id="6oyPz0-IdThpkh1JNieJ-52" value="" style="rounded=0;whiteSpace=wrap;html=1;fillColor=none;dashed=1;fontStyle=1" parent="1" vertex="1">
          <mxGeometry x="450" y="221" width="350" height="140" as="geometry" />
        </mxCell>
        <mxCell id="6oyPz0-IdThpkh1JNieJ-53" value="" style="rounded=0;whiteSpace=wrap;html=1;fillColor=none;dashed=1;fontStyle=1" parent="1" vertex="1">
          <mxGeometry x="250" y="221" width="180" height="140" as="geometry" />
        </mxCell>
        <mxCell id="6oyPz0-IdThpkh1JNieJ-3" style="edgeStyle=orthogonalEdgeStyle;rounded=0;orthogonalLoop=1;jettySize=auto;html=1;exitX=1;exitY=0.5;exitDx=0;exitDy=0;entryX=0;entryY=0.5;entryDx=0;entryDy=0;fontStyle=1" parent="1" source="6oyPz0-IdThpkh1JNieJ-1" target="6oyPz0-IdThpkh1JNieJ-2" edge="1">
          <mxGeometry relative="1" as="geometry" />
        </mxCell>
        <mxCell id="6oyPz0-IdThpkh1JNieJ-39" style="edgeStyle=orthogonalEdgeStyle;rounded=0;orthogonalLoop=1;jettySize=auto;html=1;exitX=0.5;exitY=1;exitDx=0;exitDy=0;entryX=0.5;entryY=0;entryDx=0;entryDy=0;fontStyle=1" parent="1" source="6oyPz0-IdThpkh1JNieJ-1" target="6oyPz0-IdThpkh1JNieJ-14" edge="1">
          <mxGeometry relative="1" as="geometry" />
        </mxCell>
        <mxCell id="6oyPz0-IdThpkh1JNieJ-1" value="&lt;font style=&quot;font-size: 18px;&quot;&gt;ASHP&lt;/font&gt;" style="rounded=1;whiteSpace=wrap;html=1;fillColor=#008a00;strokeColor=#005700;fontColor=#ffffff;fontStyle=1" parent="1" vertex="1">
          <mxGeometry x="820" y="123" width="120" height="60" as="geometry" />
        </mxCell>
        <mxCell id="6oyPz0-IdThpkh1JNieJ-47" style="edgeStyle=orthogonalEdgeStyle;rounded=0;orthogonalLoop=1;jettySize=auto;html=1;exitX=0.25;exitY=1;exitDx=0;exitDy=0;entryX=0.75;entryY=0;entryDx=0;entryDy=0;fontStyle=1" parent="1" source="6oyPz0-IdThpkh1JNieJ-2" target="6oyPz0-IdThpkh1JNieJ-14" edge="1">
          <mxGeometry relative="1" as="geometry" />
        </mxCell>
        <mxCell id="x6IcwjUYLpQTEdXVN8Zu-3" style="edgeStyle=orthogonalEdgeStyle;rounded=0;orthogonalLoop=1;jettySize=auto;html=1;exitX=0.5;exitY=1;exitDx=0;exitDy=0;entryX=0.5;entryY=0;entryDx=0;entryDy=0;fontStyle=1" parent="1" source="6oyPz0-IdThpkh1JNieJ-2" target="x6IcwjUYLpQTEdXVN8Zu-2" edge="1">
          <mxGeometry relative="1" as="geometry" />
        </mxCell>
        <mxCell id="x6IcwjUYLpQTEdXVN8Zu-61" style="edgeStyle=orthogonalEdgeStyle;rounded=0;orthogonalLoop=1;jettySize=auto;html=1;exitX=1;exitY=0.5;exitDx=0;exitDy=0;entryX=1;entryY=0.5;entryDx=0;entryDy=0;" parent="1" source="6oyPz0-IdThpkh1JNieJ-2" target="x6IcwjUYLpQTEdXVN8Zu-25" edge="1">
          <mxGeometry relative="1" as="geometry" />
        </mxCell>
        <mxCell id="6oyPz0-IdThpkh1JNieJ-2" value="&lt;font style=&quot;font-size: 18px;&quot;&gt;zn&lt;/font&gt;" style="rounded=1;whiteSpace=wrap;html=1;fillColor=#a20025;strokeColor=#6F0000;fontColor=#ffffff;fontStyle=1" parent="1" vertex="1">
          <mxGeometry x="1130" y="123" width="120" height="60" as="geometry" />
        </mxCell>
        <mxCell id="6oyPz0-IdThpkh1JNieJ-4" value="brick:Feeds" style="text;html=1;strokeColor=none;fillColor=none;align=center;verticalAlign=middle;whiteSpace=wrap;rounded=0;fontSize=14;fontStyle=1" parent="1" vertex="1">
          <mxGeometry x="1000" y="123" width="60" height="30" as="geometry" />
        </mxCell>
        <mxCell id="6oyPz0-IdThpkh1JNieJ-8" style="edgeStyle=orthogonalEdgeStyle;rounded=0;orthogonalLoop=1;jettySize=auto;html=1;exitX=1;exitY=0.5;exitDx=0;exitDy=0;entryX=0;entryY=0.5;entryDx=0;entryDy=0;fontStyle=1" parent="1" source="6oyPz0-IdThpkh1JNieJ-6" target="6oyPz0-IdThpkh1JNieJ-1" edge="1">
          <mxGeometry relative="1" as="geometry" />
        </mxCell>
        <mxCell id="6oyPz0-IdThpkh1JNieJ-15" style="edgeStyle=orthogonalEdgeStyle;rounded=0;orthogonalLoop=1;jettySize=auto;html=1;exitX=0.5;exitY=0;exitDx=0;exitDy=0;entryX=0.5;entryY=0;entryDx=0;entryDy=0;fontStyle=1" parent="1" source="6oyPz0-IdThpkh1JNieJ-6" target="6oyPz0-IdThpkh1JNieJ-2" edge="1">
          <mxGeometry relative="1" as="geometry" />
        </mxCell>
        <mxCell id="x6IcwjUYLpQTEdXVN8Zu-5" style="edgeStyle=orthogonalEdgeStyle;rounded=0;orthogonalLoop=1;jettySize=auto;html=1;exitX=0;exitY=0.75;exitDx=0;exitDy=0;entryX=0.75;entryY=0;entryDx=0;entryDy=0;fontStyle=1" parent="1" source="6oyPz0-IdThpkh1JNieJ-1" target="6oyPz0-IdThpkh1JNieJ-52" edge="1">
          <mxGeometry relative="1" as="geometry" />
        </mxCell>
        <mxCell id="6oyPz0-IdThpkh1JNieJ-6" value="&lt;font style=&quot;font-size: 18px;&quot;&gt;bldg_smallOff&lt;/font&gt;" style="rounded=1;whiteSpace=wrap;html=1;fillColor=#a20025;strokeColor=#6F0000;fontColor=#ffffff;fontStyle=1" parent="1" vertex="1">
          <mxGeometry x="540" y="123" width="120" height="60" as="geometry" />
        </mxCell>
        <mxCell id="6oyPz0-IdThpkh1JNieJ-9" value="brick:isLocationOf" style="text;html=1;strokeColor=none;fillColor=none;align=center;verticalAlign=middle;whiteSpace=wrap;rounded=0;fontSize=14;fontStyle=1" parent="1" vertex="1">
          <mxGeometry x="680" y="123" width="110" height="30" as="geometry" />
        </mxCell>
        <mxCell id="6oyPz0-IdThpkh1JNieJ-55" style="edgeStyle=orthogonalEdgeStyle;rounded=0;orthogonalLoop=1;jettySize=auto;html=1;exitX=0.25;exitY=1;exitDx=0;exitDy=0;entryX=1;entryY=0.178;entryDx=0;entryDy=0;fontStyle=1;entryPerimeter=0;" parent="1" source="6oyPz0-IdThpkh1JNieJ-14" target="6oyPz0-IdThpkh1JNieJ-46" edge="1">
          <mxGeometry relative="1" as="geometry" />
        </mxCell>
        <mxCell id="x6IcwjUYLpQTEdXVN8Zu-8" style="edgeStyle=orthogonalEdgeStyle;rounded=0;orthogonalLoop=1;jettySize=auto;html=1;exitX=1;exitY=0.5;exitDx=0;exitDy=0;entryX=0.5;entryY=0;entryDx=0;entryDy=0;fontStyle=1" parent="1" source="6oyPz0-IdThpkh1JNieJ-14" target="x6IcwjUYLpQTEdXVN8Zu-7" edge="1">
          <mxGeometry relative="1" as="geometry" />
        </mxCell>
        <mxCell id="6oyPz0-IdThpkh1JNieJ-14" value="&lt;font style=&quot;font-size: 18px;&quot;&gt;tstat&lt;/font&gt;" style="rounded=1;whiteSpace=wrap;html=1;fillColor=#008a00;strokeColor=#005700;fontColor=#ffffff;fontStyle=1" parent="1" vertex="1">
          <mxGeometry x="820" y="236" width="120" height="60" as="geometry" />
        </mxCell>
        <mxCell id="6oyPz0-IdThpkh1JNieJ-16" value="brick:isLocationOf" style="text;html=1;strokeColor=none;fillColor=none;align=center;verticalAlign=middle;whiteSpace=wrap;rounded=0;fontSize=14;fontStyle=1" parent="1" vertex="1">
          <mxGeometry x="825" y="80" width="110" height="30" as="geometry" />
        </mxCell>
        <mxCell id="6oyPz0-IdThpkh1JNieJ-21" style="edgeStyle=orthogonalEdgeStyle;rounded=0;orthogonalLoop=1;jettySize=auto;html=1;exitX=1;exitY=0.5;exitDx=0;exitDy=0;entryX=0;entryY=0.5;entryDx=0;entryDy=0;fontStyle=1" parent="1" source="6oyPz0-IdThpkh1JNieJ-20" target="6oyPz0-IdThpkh1JNieJ-6" edge="1">
          <mxGeometry relative="1" as="geometry" />
        </mxCell>
        <mxCell id="6oyPz0-IdThpkh1JNieJ-29" style="edgeStyle=orthogonalEdgeStyle;rounded=0;orthogonalLoop=1;jettySize=auto;html=1;exitX=0.5;exitY=1;exitDx=0;exitDy=0;entryX=0.5;entryY=0;entryDx=0;entryDy=0;fontStyle=1" parent="1" source="6oyPz0-IdThpkh1JNieJ-20" target="6oyPz0-IdThpkh1JNieJ-53" edge="1">
          <mxGeometry relative="1" as="geometry" />
        </mxCell>
        <mxCell id="6oyPz0-IdThpkh1JNieJ-20" value="&lt;font style=&quot;font-size: 18px;&quot;&gt;site_smallOff&lt;/font&gt;" style="rounded=1;whiteSpace=wrap;html=1;fillColor=#a20025;strokeColor=#6F0000;fontColor=#ffffff;fontStyle=1" parent="1" vertex="1">
          <mxGeometry x="280" y="123" width="120" height="60" as="geometry" />
        </mxCell>
        <mxCell id="6oyPz0-IdThpkh1JNieJ-23" value="brick:isLocationOf" style="text;html=1;strokeColor=none;fillColor=none;align=center;verticalAlign=middle;whiteSpace=wrap;rounded=0;fontSize=14;fontStyle=1" parent="1" vertex="1">
          <mxGeometry x="420" y="123" width="110" height="30" as="geometry" />
        </mxCell>
        <mxCell id="6oyPz0-IdThpkh1JNieJ-25" value="&lt;font style=&quot;font-size: 20px;&quot;&gt;oa_temp&lt;/font&gt;" style="rounded=1;whiteSpace=wrap;html=1;fillColor=#f5f5f5;strokeColor=#666666;fontColor=#333333;fontStyle=1" parent="1" vertex="1">
          <mxGeometry x="260" y="231" width="160" height="25" as="geometry" />
        </mxCell>
        <mxCell id="6oyPz0-IdThpkh1JNieJ-26" value="&lt;font style=&quot;font-size: 20px;&quot;&gt;oa_temp_dp&lt;/font&gt;" style="rounded=1;whiteSpace=wrap;html=1;fillColor=#f5f5f5;strokeColor=#666666;fontColor=#333333;fontStyle=1" parent="1" vertex="1">
          <mxGeometry x="260" y="263" width="160" height="25" as="geometry" />
        </mxCell>
        <mxCell id="6oyPz0-IdThpkh1JNieJ-27" value="&lt;font style=&quot;font-size: 20px;&quot;&gt;oa_temp_sim&lt;/font&gt;" style="rounded=1;whiteSpace=wrap;html=1;fillColor=#f5f5f5;strokeColor=#666666;fontColor=#333333;fontStyle=1" parent="1" vertex="1">
          <mxGeometry x="260" y="294" width="160" height="25" as="geometry" />
        </mxCell>
        <mxCell id="6oyPz0-IdThpkh1JNieJ-28" value="&lt;font style=&quot;font-size: 20px;&quot;&gt;oa_temp_dp_sim&lt;/font&gt;" style="rounded=1;whiteSpace=wrap;html=1;fillColor=#f5f5f5;strokeColor=#666666;fontColor=#333333;fontStyle=1" parent="1" vertex="1">
          <mxGeometry x="260" y="326" width="160" height="25" as="geometry" />
        </mxCell>
        <mxCell id="6oyPz0-IdThpkh1JNieJ-30" value="brick:hasPoint" style="text;html=1;strokeColor=none;fillColor=none;align=center;verticalAlign=middle;whiteSpace=wrap;rounded=0;fontSize=14;fontStyle=1" parent="1" vertex="1">
          <mxGeometry x="340" y="183" width="110" height="30" as="geometry" />
        </mxCell>
        <mxCell id="6oyPz0-IdThpkh1JNieJ-32" value="&lt;font style=&quot;font-size: 20px;&quot;&gt;sa_temp&lt;/font&gt;" style="rounded=1;whiteSpace=wrap;html=1;fillColor=#f5f5f5;strokeColor=#666666;fontColor=#333333;fontStyle=1" parent="1" vertex="1">
          <mxGeometry x="630" y="231" width="160" height="25" as="geometry" />
        </mxCell>
        <mxCell id="6oyPz0-IdThpkh1JNieJ-33" value="&lt;font style=&quot;font-size: 20px;&quot;&gt;sa_temp_dp&lt;/font&gt;" style="rounded=1;whiteSpace=wrap;html=1;fillColor=#f5f5f5;strokeColor=#666666;fontColor=#333333;fontStyle=1" parent="1" vertex="1">
          <mxGeometry x="630" y="263" width="160" height="25" as="geometry" />
        </mxCell>
        <mxCell id="6oyPz0-IdThpkh1JNieJ-34" value="&lt;font style=&quot;font-size: 20px;&quot;&gt;ref_flow&lt;/font&gt;" style="rounded=1;whiteSpace=wrap;html=1;fillColor=#f5f5f5;strokeColor=#666666;fontColor=#333333;fontStyle=1" parent="1" vertex="1">
          <mxGeometry x="630" y="294" width="160" height="25" as="geometry" />
        </mxCell>
        <mxCell id="6oyPz0-IdThpkh1JNieJ-35" value="&lt;font style=&quot;font-size: 20px;&quot;&gt;stat&lt;/font&gt;" style="rounded=1;whiteSpace=wrap;html=1;fillColor=#f5f5f5;strokeColor=#666666;fontColor=#333333;fontStyle=1" parent="1" vertex="1">
          <mxGeometry x="460" y="231" width="160" height="25" as="geometry" />
        </mxCell>
        <mxCell id="6oyPz0-IdThpkh1JNieJ-36" value="&lt;font style=&quot;font-size: 20px;&quot;&gt;stg&lt;/font&gt;" style="rounded=1;whiteSpace=wrap;html=1;fillColor=#f5f5f5;strokeColor=#666666;fontColor=#333333;fontStyle=1" parent="1" vertex="1">
          <mxGeometry x="460" y="263" width="160" height="25" as="geometry" />
        </mxCell>
        <mxCell id="6oyPz0-IdThpkh1JNieJ-37" value="&lt;font style=&quot;font-size: 20px;&quot;&gt;id_power&lt;/font&gt;" style="rounded=1;whiteSpace=wrap;html=1;fillColor=#f5f5f5;strokeColor=#666666;fontColor=#333333;fontStyle=1" parent="1" vertex="1">
          <mxGeometry x="460" y="294" width="160" height="25" as="geometry" />
        </mxCell>
        <mxCell id="6oyPz0-IdThpkh1JNieJ-38" value="&lt;font style=&quot;font-size: 20px;&quot;&gt;od_power&lt;/font&gt;" style="rounded=1;whiteSpace=wrap;html=1;fillColor=#f5f5f5;strokeColor=#666666;fontColor=#333333;fontStyle=1" parent="1" vertex="1">
          <mxGeometry x="460" y="326" width="160" height="25" as="geometry" />
        </mxCell>
        <mxCell id="6oyPz0-IdThpkh1JNieJ-40" value="brick:hasPart" style="text;html=1;strokeColor=none;fillColor=none;align=center;verticalAlign=middle;whiteSpace=wrap;rounded=0;fontSize=14;fontStyle=1" parent="1" vertex="1">
          <mxGeometry x="800" y="185.93" width="60" height="30" as="geometry" />
        </mxCell>
        <mxCell id="6oyPz0-IdThpkh1JNieJ-41" value="&lt;font style=&quot;font-size: 20px;&quot;&gt;zn_temp&lt;/font&gt;" style="rounded=1;whiteSpace=wrap;html=1;fillColor=#f5f5f5;strokeColor=#666666;fontColor=#333333;fontStyle=1" parent="1" vertex="1">
          <mxGeometry x="1110" y="231" width="160" height="25" as="geometry" />
        </mxCell>
        <mxCell id="6oyPz0-IdThpkh1JNieJ-42" value="&lt;font style=&quot;font-size: 20px;&quot;&gt;zn_temp_dp&lt;/font&gt;" style="rounded=1;whiteSpace=wrap;html=1;fillColor=#f5f5f5;strokeColor=#666666;fontColor=#333333;fontStyle=1" parent="1" vertex="1">
          <mxGeometry x="1110" y="264" width="160" height="25" as="geometry" />
        </mxCell>
        <mxCell id="6oyPz0-IdThpkh1JNieJ-43" value="&lt;font style=&quot;font-size: 20px;&quot;&gt;local_pres&lt;/font&gt;" style="rounded=1;whiteSpace=wrap;html=1;fillColor=#f5f5f5;strokeColor=#666666;fontColor=#333333;fontStyle=1" parent="1" vertex="1">
          <mxGeometry x="1110" y="296" width="160" height="25" as="geometry" />
        </mxCell>
        <mxCell id="6oyPz0-IdThpkh1JNieJ-44" value="&lt;font style=&quot;font-size: 20px;&quot;&gt;zn_temp_sim&lt;/font&gt;" style="rounded=1;whiteSpace=wrap;html=1;fillColor=#f5f5f5;strokeColor=#666666;fontColor=#333333;fontStyle=1" parent="1" vertex="1">
          <mxGeometry x="1110" y="329" width="160" height="25" as="geometry" />
        </mxCell>
        <mxCell id="6oyPz0-IdThpkh1JNieJ-45" value="&lt;font style=&quot;font-size: 20px;&quot;&gt;zn_temp_dp_sim&lt;/font&gt;" style="rounded=1;whiteSpace=wrap;html=1;fillColor=#f5f5f5;strokeColor=#666666;fontColor=#333333;fontStyle=1" parent="1" vertex="1">
          <mxGeometry x="1110" y="361" width="160" height="25" as="geometry" />
        </mxCell>
        <mxCell id="x6IcwjUYLpQTEdXVN8Zu-30" style="edgeStyle=orthogonalEdgeStyle;rounded=0;orthogonalLoop=1;jettySize=auto;html=1;exitX=0.5;exitY=1;exitDx=0;exitDy=0;entryX=0.5;entryY=0;entryDx=0;entryDy=0;" parent="1" source="6oyPz0-IdThpkh1JNieJ-46" target="x6IcwjUYLpQTEdXVN8Zu-20" edge="1">
          <mxGeometry relative="1" as="geometry" />
        </mxCell>
        <mxCell id="6oyPz0-IdThpkh1JNieJ-46" value="&lt;span style=&quot;font-size: 18px;&quot;&gt;occ##&lt;/span&gt;" style="rounded=1;whiteSpace=wrap;html=1;fillColor=#1ba1e2;strokeColor=#006EAF;fontColor=#ffffff;fontStyle=1" parent="1" vertex="1">
          <mxGeometry x="370" y="382" width="120" height="60" as="geometry" />
        </mxCell>
        <mxCell id="6oyPz0-IdThpkh1JNieJ-49" value="brick:isLocationOf" style="text;html=1;strokeColor=none;fillColor=none;align=center;verticalAlign=middle;whiteSpace=wrap;rounded=0;fontSize=14;fontStyle=1" parent="1" vertex="1">
          <mxGeometry x="990" y="183" width="110" height="30" as="geometry" />
        </mxCell>
        <mxCell id="6oyPz0-IdThpkh1JNieJ-50" value="&lt;font style=&quot;font-size: 20px;&quot;&gt;zn_temp_cspt&lt;/font&gt;" style="rounded=1;whiteSpace=wrap;html=1;fillColor=#f5f5f5;strokeColor=#666666;fontColor=#333333;fontStyle=1" parent="1" vertex="1">
          <mxGeometry x="900" y="329.5" width="170" height="25" as="geometry" />
        </mxCell>
        <mxCell id="6oyPz0-IdThpkh1JNieJ-51" value="&lt;font style=&quot;font-size: 20px;&quot;&gt;zn_temp_hspt&lt;/font&gt;" style="rounded=1;whiteSpace=wrap;html=1;fillColor=#f5f5f5;strokeColor=#666666;fontColor=#333333;fontStyle=1" parent="1" vertex="1">
          <mxGeometry x="900" y="359.5" width="170" height="25" as="geometry" />
        </mxCell>
        <mxCell id="x6IcwjUYLpQTEdXVN8Zu-4" value="brick:hasPoint" style="text;html=1;strokeColor=none;fillColor=none;align=center;verticalAlign=middle;whiteSpace=wrap;rounded=0;fontSize=14;fontStyle=1" parent="1" vertex="1">
          <mxGeometry x="600" y="183" width="110" height="30" as="geometry" />
        </mxCell>
        <mxCell id="x6IcwjUYLpQTEdXVN8Zu-6" value="brick:hasPoint" style="text;html=1;strokeColor=none;fillColor=none;align=center;verticalAlign=middle;whiteSpace=wrap;rounded=0;fontSize=14;fontStyle=1" parent="1" vertex="1">
          <mxGeometry x="1190" y="183" width="110" height="30" as="geometry" />
        </mxCell>
        <mxCell id="x6IcwjUYLpQTEdXVN8Zu-9" value="occ:isAccessibleBy" style="text;html=1;strokeColor=none;fillColor=none;align=center;verticalAlign=middle;whiteSpace=wrap;rounded=0;fontSize=14;fontStyle=1" parent="1" vertex="1">
          <mxGeometry x="630" y="369.5" width="110" height="30" as="geometry" />
        </mxCell>
        <mxCell id="x6IcwjUYLpQTEdXVN8Zu-10" value="&lt;font style=&quot;font-size: 20px;&quot;&gt;occ##_pres&lt;/font&gt;" style="rounded=1;whiteSpace=wrap;html=1;fillColor=#f5f5f5;strokeColor=#666666;fontColor=#333333;fontStyle=1;flipV=1;" parent="1" vertex="1">
          <mxGeometry x="260" y="494" width="160" height="25" as="geometry" />
        </mxCell>
        <mxCell id="x6IcwjUYLpQTEdXVN8Zu-11" value="&lt;font style=&quot;font-size: 20px;&quot;&gt;occ##_spt&lt;/font&gt;" style="rounded=1;whiteSpace=wrap;html=1;fillColor=#f5f5f5;strokeColor=#666666;fontColor=#333333;fontStyle=1" parent="1" vertex="1">
          <mxGeometry x="440" y="494" width="160" height="25" as="geometry" />
        </mxCell>
        <mxCell id="x6IcwjUYLpQTEdXVN8Zu-12" value="&lt;font style=&quot;font-size: 20px;&quot;&gt;occ##_ph&lt;/font&gt;" style="rounded=1;whiteSpace=wrap;html=1;fillColor=#f5f5f5;strokeColor=#666666;fontColor=#333333;fontStyle=1" parent="1" vertex="1">
          <mxGeometry x="260" y="532" width="160" height="25" as="geometry" />
        </mxCell>
        <mxCell id="x6IcwjUYLpQTEdXVN8Zu-13" value="&lt;font style=&quot;font-size: 20px;&quot;&gt;occ##_pf&lt;/font&gt;" style="rounded=1;whiteSpace=wrap;html=1;fillColor=#f5f5f5;strokeColor=#666666;fontColor=#333333;fontStyle=1" parent="1" vertex="1">
          <mxGeometry x="440" y="532" width="160" height="25" as="geometry" />
        </mxCell>
        <mxCell id="x6IcwjUYLpQTEdXVN8Zu-14" value="&lt;font style=&quot;font-size: 20px;&quot;&gt;occ##_drink&lt;/font&gt;" style="rounded=1;whiteSpace=wrap;html=1;fillColor=#f5f5f5;strokeColor=#666666;fontColor=#333333;fontStyle=1;flipV=1;" parent="1" vertex="1">
          <mxGeometry x="260" y="569" width="160" height="25" as="geometry" />
        </mxCell>
        <mxCell id="x6IcwjUYLpQTEdXVN8Zu-15" value="&lt;font style=&quot;font-size: 20px;&quot;&gt;occ##_clo&lt;/font&gt;" style="rounded=1;whiteSpace=wrap;html=1;fillColor=#f5f5f5;strokeColor=#666666;fontColor=#333333;fontStyle=1" parent="1" vertex="1">
          <mxGeometry x="440" y="569" width="160" height="25" as="geometry" />
        </mxCell>
        <mxCell id="x6IcwjUYLpQTEdXVN8Zu-16" value="&lt;font style=&quot;font-size: 20px;&quot;&gt;occ##_act&lt;/font&gt;" style="rounded=1;whiteSpace=wrap;html=1;fillColor=#f5f5f5;strokeColor=#666666;fontColor=#333333;fontStyle=1" parent="1" vertex="1">
          <mxGeometry x="260" y="607" width="160" height="25" as="geometry" />
        </mxCell>
        <mxCell id="x6IcwjUYLpQTEdXVN8Zu-17" value="&lt;font style=&quot;font-size: 20px;&quot;&gt;occ##_sensation&lt;/font&gt;" style="rounded=1;whiteSpace=wrap;html=1;fillColor=#f5f5f5;strokeColor=#666666;fontColor=#333333;fontStyle=1" parent="1" vertex="1">
          <mxGeometry x="440" y="607" width="160" height="25" as="geometry" />
        </mxCell>
        <mxCell id="x6IcwjUYLpQTEdXVN8Zu-18" value="&lt;font style=&quot;font-size: 20px;&quot;&gt;occ##_comfort&lt;/font&gt;" style="rounded=1;whiteSpace=wrap;html=1;fillColor=#f5f5f5;strokeColor=#666666;fontColor=#333333;fontStyle=1;flipV=1;" parent="1" vertex="1">
          <mxGeometry x="260" y="644" width="160" height="25" as="geometry" />
        </mxCell>
        <mxCell id="x6IcwjUYLpQTEdXVN8Zu-19" value="&lt;font style=&quot;font-size: 20px;&quot;&gt;occ##_met&lt;/font&gt;" style="rounded=1;whiteSpace=wrap;html=1;fillColor=#f5f5f5;strokeColor=#666666;fontColor=#333333;fontStyle=1" parent="1" vertex="1">
          <mxGeometry x="440" y="644" width="160" height="25" as="geometry" />
        </mxCell>
        <mxCell id="x6IcwjUYLpQTEdXVN8Zu-34" style="edgeStyle=orthogonalEdgeStyle;rounded=0;orthogonalLoop=1;jettySize=auto;html=1;exitX=0;exitY=0.25;exitDx=0;exitDy=0;entryX=0.995;entryY=0.574;entryDx=0;entryDy=0;entryPerimeter=0;" parent="1" source="x6IcwjUYLpQTEdXVN8Zu-23" target="6oyPz0-IdThpkh1JNieJ-46" edge="1">
          <mxGeometry relative="1" as="geometry">
            <Array as="points">
              <mxPoint x="850" y="569" />
              <mxPoint x="850" y="416" />
              <mxPoint x="489" y="416" />
            </Array>
          </mxGeometry>
        </mxCell>
        <mxCell id="x6IcwjUYLpQTEdXVN8Zu-41" style="edgeStyle=orthogonalEdgeStyle;rounded=0;orthogonalLoop=1;jettySize=auto;html=1;exitX=0.5;exitY=1;exitDx=0;exitDy=0;entryX=0.5;entryY=0;entryDx=0;entryDy=0;" parent="1" source="x6IcwjUYLpQTEdXVN8Zu-23" target="x6IcwjUYLpQTEdXVN8Zu-39" edge="1">
          <mxGeometry relative="1" as="geometry" />
        </mxCell>
        <mxCell id="x6IcwjUYLpQTEdXVN8Zu-23" value="&lt;font style=&quot;font-size: 18px;&quot;&gt;occ##_pfan&lt;/font&gt;" style="rounded=1;whiteSpace=wrap;html=1;fillColor=#008a00;strokeColor=#005700;fontColor=#ffffff;fontStyle=1" parent="1" vertex="1">
          <mxGeometry x="860" y="554" width="140" height="60" as="geometry" />
        </mxCell>
        <mxCell id="x6IcwjUYLpQTEdXVN8Zu-28" style="edgeStyle=orthogonalEdgeStyle;rounded=0;orthogonalLoop=1;jettySize=auto;html=1;exitX=0;exitY=0.5;exitDx=0;exitDy=0;entryX=0.995;entryY=0.35;entryDx=0;entryDy=0;entryPerimeter=0;" parent="1" source="x6IcwjUYLpQTEdXVN8Zu-25" target="6oyPz0-IdThpkh1JNieJ-46" edge="1">
          <mxGeometry relative="1" as="geometry">
            <Array as="points">
              <mxPoint x="870" y="515" />
              <mxPoint x="870" y="403" />
            </Array>
          </mxGeometry>
        </mxCell>
        <mxCell id="x6IcwjUYLpQTEdXVN8Zu-46" style="edgeStyle=orthogonalEdgeStyle;rounded=0;orthogonalLoop=1;jettySize=auto;html=1;exitX=0;exitY=0.75;exitDx=0;exitDy=0;entryX=1;entryY=0.25;entryDx=0;entryDy=0;" parent="1" source="x6IcwjUYLpQTEdXVN8Zu-25" target="x6IcwjUYLpQTEdXVN8Zu-23" edge="1">
          <mxGeometry relative="1" as="geometry">
            <Array as="points">
              <mxPoint x="1030" y="531" />
              <mxPoint x="1030" y="569" />
            </Array>
          </mxGeometry>
        </mxCell>
        <mxCell id="x6IcwjUYLpQTEdXVN8Zu-48" style="edgeStyle=orthogonalEdgeStyle;rounded=0;orthogonalLoop=1;jettySize=auto;html=1;exitX=0.25;exitY=1;exitDx=0;exitDy=0;entryX=0.787;entryY=0.989;entryDx=0;entryDy=0;entryPerimeter=0;" parent="1" source="x6IcwjUYLpQTEdXVN8Zu-25" target="x6IcwjUYLpQTEdXVN8Zu-32" edge="1">
          <mxGeometry relative="1" as="geometry">
            <Array as="points">
              <mxPoint x="1200" y="684" />
              <mxPoint x="800" y="684" />
            </Array>
          </mxGeometry>
        </mxCell>
        <mxCell id="x6IcwjUYLpQTEdXVN8Zu-25" value="&lt;span style=&quot;font-size: 18px;&quot;&gt;occ##_loc&lt;/span&gt;" style="rounded=1;whiteSpace=wrap;html=1;fillColor=#a20025;strokeColor=#6F0000;fontColor=#ffffff;fontStyle=1" parent="1" vertex="1">
          <mxGeometry x="1170" y="485.5" width="120" height="60" as="geometry" />
        </mxCell>
        <mxCell id="x6IcwjUYLpQTEdXVN8Zu-27" value="brick:isLocationOf" style="text;html=1;strokeColor=none;fillColor=none;align=center;verticalAlign=middle;whiteSpace=wrap;rounded=0;fontSize=14;fontStyle=1" parent="1" vertex="1">
          <mxGeometry x="1260" y="123" width="110" height="30" as="geometry" />
        </mxCell>
        <mxCell id="x6IcwjUYLpQTEdXVN8Zu-29" value="brick:isLocationOf" style="text;html=1;strokeColor=none;fillColor=none;align=center;verticalAlign=middle;whiteSpace=wrap;rounded=0;fontSize=14;fontStyle=1" parent="1" vertex="1">
          <mxGeometry x="1045" y="485.5" width="110" height="30" as="geometry" />
        </mxCell>
        <mxCell id="x6IcwjUYLpQTEdXVN8Zu-31" value="brick:hasPoint" style="text;html=1;strokeColor=none;fillColor=none;align=center;verticalAlign=middle;whiteSpace=wrap;rounded=0;fontSize=14;fontStyle=1" parent="1" vertex="1">
          <mxGeometry x="310" y="445.5" width="110" height="30" as="geometry" />
        </mxCell>
        <mxCell id="x6IcwjUYLpQTEdXVN8Zu-33" style="edgeStyle=orthogonalEdgeStyle;rounded=0;orthogonalLoop=1;jettySize=auto;html=1;exitX=0.25;exitY=0;exitDx=0;exitDy=0;entryX=1;entryY=0.75;entryDx=0;entryDy=0;" parent="1" source="x6IcwjUYLpQTEdXVN8Zu-32" target="6oyPz0-IdThpkh1JNieJ-46" edge="1">
          <mxGeometry relative="1" as="geometry">
            <Array as="points">
              <mxPoint x="710" y="554" />
              <mxPoint x="710" y="427" />
            </Array>
          </mxGeometry>
        </mxCell>
        <mxCell id="x6IcwjUYLpQTEdXVN8Zu-44" style="edgeStyle=orthogonalEdgeStyle;rounded=0;orthogonalLoop=1;jettySize=auto;html=1;exitX=0.25;exitY=1;exitDx=0;exitDy=0;entryX=0.75;entryY=0;entryDx=0;entryDy=0;" parent="1" source="x6IcwjUYLpQTEdXVN8Zu-32" target="x6IcwjUYLpQTEdXVN8Zu-38" edge="1">
          <mxGeometry relative="1" as="geometry" />
        </mxCell>
        <mxCell id="x6IcwjUYLpQTEdXVN8Zu-32" value="&lt;font style=&quot;font-size: 18px;&quot;&gt;occ##_pheater&lt;/font&gt;" style="rounded=1;whiteSpace=wrap;html=1;fillColor=#008a00;strokeColor=#005700;fontColor=#ffffff;fontStyle=1" parent="1" vertex="1">
          <mxGeometry x="690" y="554" width="140" height="60" as="geometry" />
        </mxCell>
        <mxCell id="x6IcwjUYLpQTEdXVN8Zu-35" value="brick:hasPoint" style="text;html=1;strokeColor=none;fillColor=none;align=center;verticalAlign=middle;whiteSpace=wrap;rounded=0;fontSize=14;fontStyle=1" parent="1" vertex="1">
          <mxGeometry x="940" y="241" width="110" height="30" as="geometry" />
        </mxCell>
        <mxCell id="x6IcwjUYLpQTEdXVN8Zu-36" value="occ:isAccessibleBy" style="text;html=1;strokeColor=none;fillColor=none;align=center;verticalAlign=middle;whiteSpace=wrap;rounded=0;fontSize=14;fontStyle=1" parent="1" vertex="1">
          <mxGeometry x="730" y="412" width="110" height="30" as="geometry" />
        </mxCell>
        <mxCell id="x6IcwjUYLpQTEdXVN8Zu-37" value="occ:isAccessibleBy" style="text;html=1;strokeColor=none;fillColor=none;align=center;verticalAlign=middle;whiteSpace=wrap;rounded=0;fontSize=14;fontStyle=1" parent="1" vertex="1">
          <mxGeometry x="540" y="420" width="110" height="30" as="geometry" />
        </mxCell>
        <mxCell id="x6IcwjUYLpQTEdXVN8Zu-38" value="&lt;font style=&quot;font-size: 20px;&quot;&gt;occ##_ph_power&lt;/font&gt;" style="rounded=1;whiteSpace=wrap;html=1;fillColor=#f5f5f5;strokeColor=#666666;fontColor=#333333;fontStyle=1" parent="1" vertex="1">
          <mxGeometry x="630" y="641.5" width="160" height="25" as="geometry" />
        </mxCell>
        <mxCell id="x6IcwjUYLpQTEdXVN8Zu-39" value="&lt;font style=&quot;font-size: 20px;&quot;&gt;occ##_pf_power&lt;/font&gt;" style="rounded=1;whiteSpace=wrap;html=1;fillColor=#f5f5f5;strokeColor=#666666;fontColor=#333333;fontStyle=1" parent="1" vertex="1">
          <mxGeometry x="870" y="641.5" width="160" height="25" as="geometry" />
        </mxCell>
        <mxCell id="x6IcwjUYLpQTEdXVN8Zu-42" value="brick:hasPoint" style="text;html=1;strokeColor=none;fillColor=none;align=center;verticalAlign=middle;whiteSpace=wrap;rounded=0;fontSize=14;fontStyle=1" parent="1" vertex="1">
          <mxGeometry x="640" y="614" width="110" height="30" as="geometry" />
        </mxCell>
        <mxCell id="x6IcwjUYLpQTEdXVN8Zu-43" value="brick:hasPoint" style="text;html=1;strokeColor=none;fillColor=none;align=center;verticalAlign=middle;whiteSpace=wrap;rounded=0;fontSize=14;fontStyle=1" parent="1" vertex="1">
          <mxGeometry x="950" y="611.5" width="110" height="30" as="geometry" />
        </mxCell>
        <mxCell id="x6IcwjUYLpQTEdXVN8Zu-47" value="brick:isLocationOf" style="text;html=1;strokeColor=none;fillColor=none;align=center;verticalAlign=middle;whiteSpace=wrap;rounded=0;fontSize=14;fontStyle=1" parent="1" vertex="1">
          <mxGeometry x="1050" y="535" width="110" height="30" as="geometry" />
        </mxCell>
        <mxCell id="x6IcwjUYLpQTEdXVN8Zu-49" value="brick:isLocationOf" style="text;html=1;strokeColor=none;fillColor=none;align=center;verticalAlign=middle;whiteSpace=wrap;rounded=0;fontSize=14;fontStyle=1" parent="1" vertex="1">
          <mxGeometry x="1080" y="654" width="110" height="30" as="geometry" />
        </mxCell>
        <mxCell id="x6IcwjUYLpQTEdXVN8Zu-50" value="&lt;b style=&quot;&quot;&gt;&lt;font style=&quot;font-size: 16px;&quot;&gt;* Occupant related equipment and datapoint names can be derived by changing `##`&amp;nbsp;&amp;nbsp;&lt;/font&gt;&lt;/b&gt;" style="text;html=1;strokeColor=none;fillColor=none;align=left;verticalAlign=middle;whiteSpace=wrap;rounded=0;" parent="1" vertex="1">
          <mxGeometry x="1260" y="612" width="250" height="42" as="geometry" />
        </mxCell>
        <mxCell id="x6IcwjUYLpQTEdXVN8Zu-54" value="&lt;font style=&quot;font-size: 18px;&quot;&gt;Location&lt;/font&gt;" style="rounded=1;whiteSpace=wrap;html=1;fillColor=#a20025;strokeColor=#6F0000;fontColor=#ffffff;fontStyle=1;flipV=1;" parent="1" vertex="1">
          <mxGeometry x="1360" y="226" width="120" height="60" as="geometry" />
        </mxCell>
        <mxCell id="x6IcwjUYLpQTEdXVN8Zu-55" value="&lt;font style=&quot;font-size: 18px;&quot;&gt;Equipment&lt;/font&gt;" style="rounded=1;whiteSpace=wrap;html=1;fillColor=#008a00;strokeColor=#005700;fontColor=#ffffff;fontStyle=1;flipV=1;" parent="1" vertex="1">
          <mxGeometry x="1360" y="299" width="120" height="60" as="geometry" />
        </mxCell>
        <mxCell id="x6IcwjUYLpQTEdXVN8Zu-57" value="&lt;span style=&quot;font-size: 18px;&quot;&gt;Occupant&lt;/span&gt;" style="rounded=1;whiteSpace=wrap;html=1;fillColor=#1ba1e2;strokeColor=#006EAF;fontColor=#ffffff;fontStyle=1;flipV=1;" parent="1" vertex="1">
          <mxGeometry x="1360" y="372" width="120" height="60" as="geometry" />
        </mxCell>
        <mxCell id="x6IcwjUYLpQTEdXVN8Zu-58" value="&lt;span style=&quot;font-size: 18px;&quot;&gt;Point&lt;/span&gt;" style="rounded=1;whiteSpace=wrap;html=1;fillColor=#f5f5f5;strokeColor=#666666;fontStyle=1;fontColor=#333333;flipV=1;" parent="1" vertex="1">
          <mxGeometry x="1360" y="444.5" width="120" height="60" as="geometry" />
        </mxCell>
        <mxCell id="x6IcwjUYLpQTEdXVN8Zu-59" value="" style="rounded=0;whiteSpace=wrap;html=1;fillColor=none;fontStyle=1" parent="1" vertex="1">
          <mxGeometry x="1350" y="215.93" width="140" height="304.07" as="geometry" />
        </mxCell>
        <mxCell id="x6IcwjUYLpQTEdXVN8Zu-60" value="&lt;b style=&quot;border-color: var(--border-color);&quot;&gt;&lt;font style=&quot;font-size: 22px;&quot;&gt;LEGEND&lt;/font&gt;&lt;/b&gt;" style="text;html=1;strokeColor=none;fillColor=none;align=center;verticalAlign=middle;whiteSpace=wrap;rounded=0;" parent="1" vertex="1">
          <mxGeometry x="1355" y="183" width="130" height="30" as="geometry" />
        </mxCell>
        <mxCell id="x6IcwjUYLpQTEdXVN8Zu-63" value="&lt;font style=&quot;font-size: 20px;&quot;&gt;grid_signal_type&lt;/font&gt;" style="rounded=1;whiteSpace=wrap;html=1;fillColor=#f5f5f5;strokeColor=#666666;fontColor=#333333;fontStyle=1" parent="1" vertex="1">
          <mxGeometry x="900" y="389.5" width="170" height="25" as="geometry" />
        </mxCell>
        <mxCell id="x6IcwjUYLpQTEdXVN8Zu-64" value="&lt;font style=&quot;font-size: 20px;&quot;&gt;grid_signal_shed&lt;/font&gt;" style="rounded=1;whiteSpace=wrap;html=1;fillColor=#f5f5f5;strokeColor=#666666;fontColor=#333333;fontStyle=1" parent="1" vertex="1">
          <mxGeometry x="900" y="419.5" width="170" height="25" as="geometry" />
        </mxCell>
        <mxCell id="x6IcwjUYLpQTEdXVN8Zu-65" value="&lt;font style=&quot;font-size: 20px;&quot;&gt;grid_signal_price&lt;/font&gt;" style="rounded=1;whiteSpace=wrap;html=1;fillColor=#f5f5f5;strokeColor=#666666;fontColor=#333333;fontStyle=1" parent="1" vertex="1">
          <mxGeometry x="900" y="448" width="170" height="25" as="geometry" />
        </mxCell>
        <mxCell id="x6IcwjUYLpQTEdXVN8Zu-66" value="&lt;b style=&quot;border-color: var(--border-color);&quot;&gt;&lt;font style=&quot;font-size: 22px;&quot;&gt;NOTES&lt;/font&gt;&lt;/b&gt;" style="text;html=1;strokeColor=none;fillColor=none;align=left;verticalAlign=middle;whiteSpace=wrap;rounded=0;" parent="1" vertex="1">
          <mxGeometry x="1260" y="569" width="130" height="30" as="geometry" />
        </mxCell>
      </root>
    </mxGraphModel>
  </diagram>
  <diagram name="Page-2" id="akZove7VBQPeLeb5HaHY">
    <mxGraphModel dx="1766" dy="756" grid="1" gridSize="10" guides="1" tooltips="1" connect="1" arrows="1" fold="1" page="1" pageScale="1" pageWidth="850" pageHeight="1100" math="0" shadow="0">
      <root>
        <mxCell id="MmBOkWt7S69UZNBFQ9mI-0" />
        <mxCell id="MmBOkWt7S69UZNBFQ9mI-1" parent="MmBOkWt7S69UZNBFQ9mI-0" />
        <mxCell id="MmBOkWt7S69UZNBFQ9mI-2" value="" style="rounded=0;whiteSpace=wrap;html=1;fillColor=none;dashed=1;fontStyle=1" parent="MmBOkWt7S69UZNBFQ9mI-1" vertex="1">
          <mxGeometry x="250" y="484" width="360" height="200" as="geometry" />
        </mxCell>
        <mxCell id="MmBOkWt7S69UZNBFQ9mI-3" value="" style="rounded=0;whiteSpace=wrap;html=1;fillColor=none;dashed=1;fontStyle=1" parent="MmBOkWt7S69UZNBFQ9mI-1" vertex="1">
          <mxGeometry x="890" y="320" width="190" height="80" as="geometry" />
        </mxCell>
        <mxCell id="MmBOkWt7S69UZNBFQ9mI-4" value="" style="rounded=0;whiteSpace=wrap;html=1;fillColor=none;dashed=1;fontStyle=1" parent="MmBOkWt7S69UZNBFQ9mI-1" vertex="1">
          <mxGeometry x="1100" y="221" width="180" height="180" as="geometry" />
        </mxCell>
        <mxCell id="MmBOkWt7S69UZNBFQ9mI-5" value="" style="rounded=0;whiteSpace=wrap;html=1;fillColor=none;dashed=1;fontStyle=1" parent="MmBOkWt7S69UZNBFQ9mI-1" vertex="1">
          <mxGeometry x="250" y="221" width="520" height="140" as="geometry" />
        </mxCell>
        <mxCell id="MmBOkWt7S69UZNBFQ9mI-7" style="edgeStyle=orthogonalEdgeStyle;rounded=0;orthogonalLoop=1;jettySize=auto;html=1;exitX=1;exitY=0.5;exitDx=0;exitDy=0;entryX=0;entryY=0.5;entryDx=0;entryDy=0;fontStyle=1" parent="MmBOkWt7S69UZNBFQ9mI-1" source="MmBOkWt7S69UZNBFQ9mI-9" target="MmBOkWt7S69UZNBFQ9mI-13" edge="1">
          <mxGeometry relative="1" as="geometry" />
        </mxCell>
        <mxCell id="MmBOkWt7S69UZNBFQ9mI-8" style="edgeStyle=orthogonalEdgeStyle;rounded=0;orthogonalLoop=1;jettySize=auto;html=1;exitX=0.5;exitY=1;exitDx=0;exitDy=0;entryX=0.5;entryY=0;entryDx=0;entryDy=0;fontStyle=1" parent="MmBOkWt7S69UZNBFQ9mI-1" source="MmBOkWt7S69UZNBFQ9mI-9" target="MmBOkWt7S69UZNBFQ9mI-22" edge="1">
          <mxGeometry relative="1" as="geometry" />
        </mxCell>
        <mxCell id="MmBOkWt7S69UZNBFQ9mI-9" value="&lt;font style=&quot;font-size: 18px;&quot;&gt;ASHP&lt;/font&gt;" style="rounded=1;whiteSpace=wrap;html=1;fillColor=#008a00;strokeColor=#005700;fontColor=#ffffff;fontStyle=1" parent="MmBOkWt7S69UZNBFQ9mI-1" vertex="1">
          <mxGeometry x="820" y="123" width="120" height="60" as="geometry" />
        </mxCell>
        <mxCell id="MmBOkWt7S69UZNBFQ9mI-10" style="edgeStyle=orthogonalEdgeStyle;rounded=0;orthogonalLoop=1;jettySize=auto;html=1;exitX=0.25;exitY=1;exitDx=0;exitDy=0;entryX=0.75;entryY=0;entryDx=0;entryDy=0;fontStyle=1" parent="MmBOkWt7S69UZNBFQ9mI-1" source="MmBOkWt7S69UZNBFQ9mI-13" target="MmBOkWt7S69UZNBFQ9mI-22" edge="1">
          <mxGeometry relative="1" as="geometry" />
        </mxCell>
        <mxCell id="MmBOkWt7S69UZNBFQ9mI-11" style="edgeStyle=orthogonalEdgeStyle;rounded=0;orthogonalLoop=1;jettySize=auto;html=1;exitX=0.5;exitY=1;exitDx=0;exitDy=0;entryX=0.5;entryY=0;entryDx=0;entryDy=0;fontStyle=1" parent="MmBOkWt7S69UZNBFQ9mI-1" source="MmBOkWt7S69UZNBFQ9mI-13" target="MmBOkWt7S69UZNBFQ9mI-4" edge="1">
          <mxGeometry relative="1" as="geometry" />
        </mxCell>
        <mxCell id="MmBOkWt7S69UZNBFQ9mI-12" style="edgeStyle=orthogonalEdgeStyle;rounded=0;orthogonalLoop=1;jettySize=auto;html=1;exitX=1;exitY=0.5;exitDx=0;exitDy=0;entryX=1;entryY=0.5;entryDx=0;entryDy=0;" parent="MmBOkWt7S69UZNBFQ9mI-1" source="MmBOkWt7S69UZNBFQ9mI-13" target="MmBOkWt7S69UZNBFQ9mI-70" edge="1">
          <mxGeometry relative="1" as="geometry" />
        </mxCell>
        <mxCell id="MmBOkWt7S69UZNBFQ9mI-13" value="&lt;font style=&quot;font-size: 18px;&quot;&gt;zn&lt;/font&gt;" style="rounded=1;whiteSpace=wrap;html=1;fillColor=#a20025;strokeColor=#6F0000;fontColor=#ffffff;fontStyle=1" parent="MmBOkWt7S69UZNBFQ9mI-1" vertex="1">
          <mxGeometry x="1130" y="123" width="120" height="60" as="geometry" />
        </mxCell>
        <mxCell id="MmBOkWt7S69UZNBFQ9mI-14" value="brick:Feeds" style="text;html=1;strokeColor=none;fillColor=none;align=center;verticalAlign=middle;whiteSpace=wrap;rounded=0;fontSize=14;fontStyle=1" parent="MmBOkWt7S69UZNBFQ9mI-1" vertex="1">
          <mxGeometry x="1000" y="123" width="60" height="30" as="geometry" />
        </mxCell>
        <mxCell id="MmBOkWt7S69UZNBFQ9mI-17" style="edgeStyle=orthogonalEdgeStyle;rounded=0;orthogonalLoop=1;jettySize=auto;html=1;exitX=0;exitY=0.5;exitDx=0;exitDy=0;entryX=0.75;entryY=0;entryDx=0;entryDy=0;fontStyle=1" parent="MmBOkWt7S69UZNBFQ9mI-1" source="MmBOkWt7S69UZNBFQ9mI-9" target="MmBOkWt7S69UZNBFQ9mI-5" edge="1">
          <mxGeometry relative="1" as="geometry" />
        </mxCell>
        <mxCell id="MmBOkWt7S69UZNBFQ9mI-20" style="edgeStyle=orthogonalEdgeStyle;rounded=0;orthogonalLoop=1;jettySize=auto;html=1;exitX=0.25;exitY=1;exitDx=0;exitDy=0;entryX=1;entryY=0.178;entryDx=0;entryDy=0;fontStyle=1;entryPerimeter=0;" parent="MmBOkWt7S69UZNBFQ9mI-1" source="MmBOkWt7S69UZNBFQ9mI-22" target="MmBOkWt7S69UZNBFQ9mI-47" edge="1">
          <mxGeometry relative="1" as="geometry" />
        </mxCell>
        <mxCell id="MmBOkWt7S69UZNBFQ9mI-21" style="edgeStyle=orthogonalEdgeStyle;rounded=0;orthogonalLoop=1;jettySize=auto;html=1;exitX=1;exitY=0.5;exitDx=0;exitDy=0;entryX=0.5;entryY=0;entryDx=0;entryDy=0;fontStyle=1" parent="MmBOkWt7S69UZNBFQ9mI-1" source="MmBOkWt7S69UZNBFQ9mI-22" target="MmBOkWt7S69UZNBFQ9mI-3" edge="1">
          <mxGeometry relative="1" as="geometry" />
        </mxCell>
        <mxCell id="MmBOkWt7S69UZNBFQ9mI-22" value="&lt;font style=&quot;font-size: 18px;&quot;&gt;tstat&lt;/font&gt;" style="rounded=1;whiteSpace=wrap;html=1;fillColor=#008a00;strokeColor=#005700;fontColor=#ffffff;fontStyle=1" parent="MmBOkWt7S69UZNBFQ9mI-1" vertex="1">
          <mxGeometry x="820" y="236" width="120" height="60" as="geometry" />
        </mxCell>
        <mxCell id="MmBOkWt7S69UZNBFQ9mI-28" value="&lt;font style=&quot;font-size: 20px;&quot;&gt;oa_temp&lt;/font&gt;" style="rounded=1;whiteSpace=wrap;html=1;fillColor=#f5f5f5;strokeColor=#666666;fontColor=#333333;fontStyle=1" parent="MmBOkWt7S69UZNBFQ9mI-1" vertex="1">
          <mxGeometry x="260" y="231" width="160" height="25" as="geometry" />
        </mxCell>
        <mxCell id="MmBOkWt7S69UZNBFQ9mI-29" value="&lt;font style=&quot;font-size: 20px;&quot;&gt;oa_temp_dp&lt;/font&gt;" style="rounded=1;whiteSpace=wrap;html=1;fillColor=#f5f5f5;strokeColor=#666666;fontColor=#333333;fontStyle=1" parent="MmBOkWt7S69UZNBFQ9mI-1" vertex="1">
          <mxGeometry x="260" y="263" width="160" height="25" as="geometry" />
        </mxCell>
        <mxCell id="MmBOkWt7S69UZNBFQ9mI-30" value="&lt;font style=&quot;font-size: 20px;&quot;&gt;oa_temp_sim&lt;/font&gt;" style="rounded=1;whiteSpace=wrap;html=1;fillColor=#f5f5f5;strokeColor=#666666;fontColor=#333333;fontStyle=1" parent="MmBOkWt7S69UZNBFQ9mI-1" vertex="1">
          <mxGeometry x="260" y="294" width="160" height="25" as="geometry" />
        </mxCell>
        <mxCell id="MmBOkWt7S69UZNBFQ9mI-31" value="&lt;font style=&quot;font-size: 20px;&quot;&gt;oa_temp_dp_sim&lt;/font&gt;" style="rounded=1;whiteSpace=wrap;html=1;fillColor=#f5f5f5;strokeColor=#666666;fontColor=#333333;fontStyle=1" parent="MmBOkWt7S69UZNBFQ9mI-1" vertex="1">
          <mxGeometry x="260" y="326" width="160" height="25" as="geometry" />
        </mxCell>
        <mxCell id="MmBOkWt7S69UZNBFQ9mI-33" value="&lt;font style=&quot;font-size: 20px;&quot;&gt;sa_temp&lt;/font&gt;" style="rounded=1;whiteSpace=wrap;html=1;fillColor=#f5f5f5;strokeColor=#666666;fontColor=#333333;fontStyle=1" parent="MmBOkWt7S69UZNBFQ9mI-1" vertex="1">
          <mxGeometry x="600" y="231" width="160" height="25" as="geometry" />
        </mxCell>
        <mxCell id="MmBOkWt7S69UZNBFQ9mI-34" value="&lt;font style=&quot;font-size: 20px;&quot;&gt;sa_temp_dp&lt;/font&gt;" style="rounded=1;whiteSpace=wrap;html=1;fillColor=#f5f5f5;strokeColor=#666666;fontColor=#333333;fontStyle=1" parent="MmBOkWt7S69UZNBFQ9mI-1" vertex="1">
          <mxGeometry x="600" y="263" width="160" height="25" as="geometry" />
        </mxCell>
        <mxCell id="MmBOkWt7S69UZNBFQ9mI-35" value="&lt;font style=&quot;font-size: 20px;&quot;&gt;ref_flow&lt;/font&gt;" style="rounded=1;whiteSpace=wrap;html=1;fillColor=#f5f5f5;strokeColor=#666666;fontColor=#333333;fontStyle=1" parent="MmBOkWt7S69UZNBFQ9mI-1" vertex="1">
          <mxGeometry x="600" y="294" width="160" height="25" as="geometry" />
        </mxCell>
        <mxCell id="MmBOkWt7S69UZNBFQ9mI-36" value="&lt;font style=&quot;font-size: 20px;&quot;&gt;stat&lt;/font&gt;" style="rounded=1;whiteSpace=wrap;html=1;fillColor=#f5f5f5;strokeColor=#666666;fontColor=#333333;fontStyle=1" parent="MmBOkWt7S69UZNBFQ9mI-1" vertex="1">
          <mxGeometry x="430" y="231" width="160" height="25" as="geometry" />
        </mxCell>
        <mxCell id="MmBOkWt7S69UZNBFQ9mI-37" value="&lt;font style=&quot;font-size: 20px;&quot;&gt;stg&lt;/font&gt;" style="rounded=1;whiteSpace=wrap;html=1;fillColor=#f5f5f5;strokeColor=#666666;fontColor=#333333;fontStyle=1" parent="MmBOkWt7S69UZNBFQ9mI-1" vertex="1">
          <mxGeometry x="430" y="263" width="160" height="25" as="geometry" />
        </mxCell>
        <mxCell id="MmBOkWt7S69UZNBFQ9mI-38" value="&lt;font style=&quot;font-size: 20px;&quot;&gt;id_power&lt;/font&gt;" style="rounded=1;whiteSpace=wrap;html=1;fillColor=#f5f5f5;strokeColor=#666666;fontColor=#333333;fontStyle=1" parent="MmBOkWt7S69UZNBFQ9mI-1" vertex="1">
          <mxGeometry x="430" y="294" width="160" height="25" as="geometry" />
        </mxCell>
        <mxCell id="MmBOkWt7S69UZNBFQ9mI-39" value="&lt;font style=&quot;font-size: 20px;&quot;&gt;od_power&lt;/font&gt;" style="rounded=1;whiteSpace=wrap;html=1;fillColor=#f5f5f5;strokeColor=#666666;fontColor=#333333;fontStyle=1" parent="MmBOkWt7S69UZNBFQ9mI-1" vertex="1">
          <mxGeometry x="430" y="326" width="160" height="25" as="geometry" />
        </mxCell>
        <mxCell id="MmBOkWt7S69UZNBFQ9mI-40" value="brick:hasPart" style="text;html=1;strokeColor=none;fillColor=none;align=center;verticalAlign=middle;whiteSpace=wrap;rounded=0;fontSize=14;fontStyle=1" parent="MmBOkWt7S69UZNBFQ9mI-1" vertex="1">
          <mxGeometry x="800" y="185.93" width="60" height="30" as="geometry" />
        </mxCell>
        <mxCell id="MmBOkWt7S69UZNBFQ9mI-41" value="&lt;font style=&quot;font-size: 20px;&quot;&gt;zn_temp&lt;/font&gt;" style="rounded=1;whiteSpace=wrap;html=1;fillColor=#f5f5f5;strokeColor=#666666;fontColor=#333333;fontStyle=1" parent="MmBOkWt7S69UZNBFQ9mI-1" vertex="1">
          <mxGeometry x="1110" y="231" width="160" height="25" as="geometry" />
        </mxCell>
        <mxCell id="MmBOkWt7S69UZNBFQ9mI-42" value="&lt;font style=&quot;font-size: 20px;&quot;&gt;zn_temp_dp&lt;/font&gt;" style="rounded=1;whiteSpace=wrap;html=1;fillColor=#f5f5f5;strokeColor=#666666;fontColor=#333333;fontStyle=1" parent="MmBOkWt7S69UZNBFQ9mI-1" vertex="1">
          <mxGeometry x="1110" y="264" width="160" height="25" as="geometry" />
        </mxCell>
        <mxCell id="MmBOkWt7S69UZNBFQ9mI-43" value="&lt;font style=&quot;font-size: 20px;&quot;&gt;local_pres&lt;/font&gt;" style="rounded=1;whiteSpace=wrap;html=1;fillColor=#f5f5f5;strokeColor=#666666;fontColor=#333333;fontStyle=1" parent="MmBOkWt7S69UZNBFQ9mI-1" vertex="1">
          <mxGeometry x="1110" y="296" width="160" height="25" as="geometry" />
        </mxCell>
        <mxCell id="MmBOkWt7S69UZNBFQ9mI-44" value="&lt;font style=&quot;font-size: 20px;&quot;&gt;zn_temp_sim&lt;/font&gt;" style="rounded=1;whiteSpace=wrap;html=1;fillColor=#f5f5f5;strokeColor=#666666;fontColor=#333333;fontStyle=1" parent="MmBOkWt7S69UZNBFQ9mI-1" vertex="1">
          <mxGeometry x="1110" y="329" width="160" height="25" as="geometry" />
        </mxCell>
        <mxCell id="MmBOkWt7S69UZNBFQ9mI-45" value="&lt;font style=&quot;font-size: 20px;&quot;&gt;zn_temp_dp_sim&lt;/font&gt;" style="rounded=1;whiteSpace=wrap;html=1;fillColor=#f5f5f5;strokeColor=#666666;fontColor=#333333;fontStyle=1" parent="MmBOkWt7S69UZNBFQ9mI-1" vertex="1">
          <mxGeometry x="1110" y="361" width="160" height="25" as="geometry" />
        </mxCell>
        <mxCell id="MmBOkWt7S69UZNBFQ9mI-46" style="edgeStyle=orthogonalEdgeStyle;rounded=0;orthogonalLoop=1;jettySize=auto;html=1;exitX=0.5;exitY=1;exitDx=0;exitDy=0;entryX=0.5;entryY=0;entryDx=0;entryDy=0;" parent="MmBOkWt7S69UZNBFQ9mI-1" source="MmBOkWt7S69UZNBFQ9mI-47" target="MmBOkWt7S69UZNBFQ9mI-2" edge="1">
          <mxGeometry relative="1" as="geometry" />
        </mxCell>
        <mxCell id="MmBOkWt7S69UZNBFQ9mI-47" value="&lt;span style=&quot;font-size: 18px;&quot;&gt;occ##&lt;/span&gt;" style="rounded=1;whiteSpace=wrap;html=1;fillColor=#1ba1e2;strokeColor=#006EAF;fontColor=#ffffff;fontStyle=1" parent="MmBOkWt7S69UZNBFQ9mI-1" vertex="1">
          <mxGeometry x="370" y="382" width="120" height="60" as="geometry" />
        </mxCell>
        <mxCell id="MmBOkWt7S69UZNBFQ9mI-48" value="brick:isLocationOf" style="text;html=1;strokeColor=none;fillColor=none;align=center;verticalAlign=middle;whiteSpace=wrap;rounded=0;fontSize=14;fontStyle=1" parent="MmBOkWt7S69UZNBFQ9mI-1" vertex="1">
          <mxGeometry x="990" y="183" width="110" height="30" as="geometry" />
        </mxCell>
        <mxCell id="MmBOkWt7S69UZNBFQ9mI-49" value="&lt;font style=&quot;font-size: 20px;&quot;&gt;zn_temp_cspt&lt;/font&gt;" style="rounded=1;whiteSpace=wrap;html=1;fillColor=#f5f5f5;strokeColor=#666666;fontColor=#333333;fontStyle=1" parent="MmBOkWt7S69UZNBFQ9mI-1" vertex="1">
          <mxGeometry x="900" y="329.5" width="170" height="25" as="geometry" />
        </mxCell>
        <mxCell id="MmBOkWt7S69UZNBFQ9mI-50" value="&lt;font style=&quot;font-size: 20px;&quot;&gt;zn_temp_hspt&lt;/font&gt;" style="rounded=1;whiteSpace=wrap;html=1;fillColor=#f5f5f5;strokeColor=#666666;fontColor=#333333;fontStyle=1" parent="MmBOkWt7S69UZNBFQ9mI-1" vertex="1">
          <mxGeometry x="900" y="361" width="170" height="25" as="geometry" />
        </mxCell>
        <mxCell id="MmBOkWt7S69UZNBFQ9mI-51" value="brick:hasPoint" style="text;html=1;strokeColor=none;fillColor=none;align=center;verticalAlign=middle;whiteSpace=wrap;rounded=0;fontSize=14;fontStyle=1" parent="MmBOkWt7S69UZNBFQ9mI-1" vertex="1">
          <mxGeometry x="680" y="123" width="110" height="30" as="geometry" />
        </mxCell>
        <mxCell id="MmBOkWt7S69UZNBFQ9mI-52" value="brick:hasPoint" style="text;html=1;strokeColor=none;fillColor=none;align=center;verticalAlign=middle;whiteSpace=wrap;rounded=0;fontSize=14;fontStyle=1" parent="MmBOkWt7S69UZNBFQ9mI-1" vertex="1">
          <mxGeometry x="1190" y="183" width="110" height="30" as="geometry" />
        </mxCell>
        <mxCell id="MmBOkWt7S69UZNBFQ9mI-53" value="occ:isAccessibleBy" style="text;html=1;strokeColor=none;fillColor=none;align=center;verticalAlign=middle;whiteSpace=wrap;rounded=0;fontSize=14;fontStyle=1" parent="MmBOkWt7S69UZNBFQ9mI-1" vertex="1">
          <mxGeometry x="630" y="369.5" width="110" height="30" as="geometry" />
        </mxCell>
        <mxCell id="MmBOkWt7S69UZNBFQ9mI-54" value="&lt;font style=&quot;font-size: 20px;&quot;&gt;occ##_pres&lt;/font&gt;" style="rounded=1;whiteSpace=wrap;html=1;fillColor=#f5f5f5;strokeColor=#666666;fontColor=#333333;fontStyle=1;flipV=1;" parent="MmBOkWt7S69UZNBFQ9mI-1" vertex="1">
          <mxGeometry x="260" y="494" width="160" height="25" as="geometry" />
        </mxCell>
        <mxCell id="MmBOkWt7S69UZNBFQ9mI-55" value="&lt;font style=&quot;font-size: 20px;&quot;&gt;occ##_spt&lt;/font&gt;" style="rounded=1;whiteSpace=wrap;html=1;fillColor=#f5f5f5;strokeColor=#666666;fontColor=#333333;fontStyle=1" parent="MmBOkWt7S69UZNBFQ9mI-1" vertex="1">
          <mxGeometry x="440" y="494" width="160" height="25" as="geometry" />
        </mxCell>
        <mxCell id="MmBOkWt7S69UZNBFQ9mI-56" value="&lt;font style=&quot;font-size: 20px;&quot;&gt;occ##_ph&lt;/font&gt;" style="rounded=1;whiteSpace=wrap;html=1;fillColor=#f5f5f5;strokeColor=#666666;fontColor=#333333;fontStyle=1" parent="MmBOkWt7S69UZNBFQ9mI-1" vertex="1">
          <mxGeometry x="260" y="532" width="160" height="25" as="geometry" />
        </mxCell>
        <mxCell id="MmBOkWt7S69UZNBFQ9mI-57" value="&lt;font style=&quot;font-size: 20px;&quot;&gt;occ##_pf&lt;/font&gt;" style="rounded=1;whiteSpace=wrap;html=1;fillColor=#f5f5f5;strokeColor=#666666;fontColor=#333333;fontStyle=1" parent="MmBOkWt7S69UZNBFQ9mI-1" vertex="1">
          <mxGeometry x="440" y="532" width="160" height="25" as="geometry" />
        </mxCell>
        <mxCell id="MmBOkWt7S69UZNBFQ9mI-58" value="&lt;font style=&quot;font-size: 20px;&quot;&gt;occ##_drink&lt;/font&gt;" style="rounded=1;whiteSpace=wrap;html=1;fillColor=#f5f5f5;strokeColor=#666666;fontColor=#333333;fontStyle=1;flipV=1;" parent="MmBOkWt7S69UZNBFQ9mI-1" vertex="1">
          <mxGeometry x="260" y="569" width="160" height="25" as="geometry" />
        </mxCell>
        <mxCell id="MmBOkWt7S69UZNBFQ9mI-59" value="&lt;font style=&quot;font-size: 20px;&quot;&gt;occ##_clo&lt;/font&gt;" style="rounded=1;whiteSpace=wrap;html=1;fillColor=#f5f5f5;strokeColor=#666666;fontColor=#333333;fontStyle=1" parent="MmBOkWt7S69UZNBFQ9mI-1" vertex="1">
          <mxGeometry x="440" y="569" width="160" height="25" as="geometry" />
        </mxCell>
        <mxCell id="MmBOkWt7S69UZNBFQ9mI-60" value="&lt;font style=&quot;font-size: 20px;&quot;&gt;occ##_act&lt;/font&gt;" style="rounded=1;whiteSpace=wrap;html=1;fillColor=#f5f5f5;strokeColor=#666666;fontColor=#333333;fontStyle=1" parent="MmBOkWt7S69UZNBFQ9mI-1" vertex="1">
          <mxGeometry x="260" y="607" width="160" height="25" as="geometry" />
        </mxCell>
        <mxCell id="MmBOkWt7S69UZNBFQ9mI-61" value="&lt;font style=&quot;font-size: 20px;&quot;&gt;occ##_sensation&lt;/font&gt;" style="rounded=1;whiteSpace=wrap;html=1;fillColor=#f5f5f5;strokeColor=#666666;fontColor=#333333;fontStyle=1" parent="MmBOkWt7S69UZNBFQ9mI-1" vertex="1">
          <mxGeometry x="440" y="607" width="160" height="25" as="geometry" />
        </mxCell>
        <mxCell id="MmBOkWt7S69UZNBFQ9mI-62" value="&lt;font style=&quot;font-size: 20px;&quot;&gt;occ##_comfort&lt;/font&gt;" style="rounded=1;whiteSpace=wrap;html=1;fillColor=#f5f5f5;strokeColor=#666666;fontColor=#333333;fontStyle=1;flipV=1;" parent="MmBOkWt7S69UZNBFQ9mI-1" vertex="1">
          <mxGeometry x="260" y="644" width="160" height="25" as="geometry" />
        </mxCell>
        <mxCell id="MmBOkWt7S69UZNBFQ9mI-63" value="&lt;font style=&quot;font-size: 20px;&quot;&gt;occ##_met&lt;/font&gt;" style="rounded=1;whiteSpace=wrap;html=1;fillColor=#f5f5f5;strokeColor=#666666;fontColor=#333333;fontStyle=1" parent="MmBOkWt7S69UZNBFQ9mI-1" vertex="1">
          <mxGeometry x="440" y="644" width="160" height="25" as="geometry" />
        </mxCell>
        <mxCell id="MmBOkWt7S69UZNBFQ9mI-64" style="edgeStyle=orthogonalEdgeStyle;rounded=0;orthogonalLoop=1;jettySize=auto;html=1;exitX=0;exitY=0.25;exitDx=0;exitDy=0;entryX=0.995;entryY=0.574;entryDx=0;entryDy=0;entryPerimeter=0;" parent="MmBOkWt7S69UZNBFQ9mI-1" source="MmBOkWt7S69UZNBFQ9mI-66" target="MmBOkWt7S69UZNBFQ9mI-47" edge="1">
          <mxGeometry relative="1" as="geometry">
            <Array as="points">
              <mxPoint x="850" y="569" />
              <mxPoint x="850" y="416" />
              <mxPoint x="489" y="416" />
            </Array>
          </mxGeometry>
        </mxCell>
        <mxCell id="MmBOkWt7S69UZNBFQ9mI-65" style="edgeStyle=orthogonalEdgeStyle;rounded=0;orthogonalLoop=1;jettySize=auto;html=1;exitX=0.5;exitY=1;exitDx=0;exitDy=0;entryX=0.5;entryY=0;entryDx=0;entryDy=0;" parent="MmBOkWt7S69UZNBFQ9mI-1" source="MmBOkWt7S69UZNBFQ9mI-66" target="MmBOkWt7S69UZNBFQ9mI-81" edge="1">
          <mxGeometry relative="1" as="geometry" />
        </mxCell>
        <mxCell id="MmBOkWt7S69UZNBFQ9mI-66" value="&lt;font style=&quot;font-size: 18px;&quot;&gt;occ##_pfan&lt;/font&gt;" style="rounded=1;whiteSpace=wrap;html=1;fillColor=#008a00;strokeColor=#005700;fontColor=#ffffff;fontStyle=1" parent="MmBOkWt7S69UZNBFQ9mI-1" vertex="1">
          <mxGeometry x="860" y="554" width="140" height="60" as="geometry" />
        </mxCell>
        <mxCell id="MmBOkWt7S69UZNBFQ9mI-67" style="edgeStyle=orthogonalEdgeStyle;rounded=0;orthogonalLoop=1;jettySize=auto;html=1;exitX=0;exitY=0.5;exitDx=0;exitDy=0;entryX=0.995;entryY=0.35;entryDx=0;entryDy=0;entryPerimeter=0;" parent="MmBOkWt7S69UZNBFQ9mI-1" source="MmBOkWt7S69UZNBFQ9mI-70" target="MmBOkWt7S69UZNBFQ9mI-47" edge="1">
          <mxGeometry relative="1" as="geometry">
            <Array as="points">
              <mxPoint x="870" y="454" />
              <mxPoint x="870" y="403" />
            </Array>
          </mxGeometry>
        </mxCell>
        <mxCell id="MmBOkWt7S69UZNBFQ9mI-68" style="edgeStyle=orthogonalEdgeStyle;rounded=0;orthogonalLoop=1;jettySize=auto;html=1;exitX=0;exitY=0.75;exitDx=0;exitDy=0;entryX=0.5;entryY=0;entryDx=0;entryDy=0;" parent="MmBOkWt7S69UZNBFQ9mI-1" source="MmBOkWt7S69UZNBFQ9mI-70" target="MmBOkWt7S69UZNBFQ9mI-66" edge="1">
          <mxGeometry relative="1" as="geometry">
            <Array as="points">
              <mxPoint x="930" y="470" />
            </Array>
          </mxGeometry>
        </mxCell>
        <mxCell id="MmBOkWt7S69UZNBFQ9mI-69" style="edgeStyle=orthogonalEdgeStyle;rounded=0;orthogonalLoop=1;jettySize=auto;html=1;exitX=0.25;exitY=1;exitDx=0;exitDy=0;entryX=0.787;entryY=0.989;entryDx=0;entryDy=0;entryPerimeter=0;" parent="MmBOkWt7S69UZNBFQ9mI-1" source="MmBOkWt7S69UZNBFQ9mI-70" target="MmBOkWt7S69UZNBFQ9mI-76" edge="1">
          <mxGeometry relative="1" as="geometry">
            <Array as="points">
              <mxPoint x="1200" y="684" />
              <mxPoint x="800" y="684" />
            </Array>
          </mxGeometry>
        </mxCell>
        <mxCell id="MmBOkWt7S69UZNBFQ9mI-70" value="&lt;span style=&quot;font-size: 18px;&quot;&gt;occ##_loc&lt;/span&gt;" style="rounded=1;whiteSpace=wrap;html=1;fillColor=#a20025;strokeColor=#6F0000;fontColor=#ffffff;fontStyle=1" parent="MmBOkWt7S69UZNBFQ9mI-1" vertex="1">
          <mxGeometry x="1170" y="424" width="120" height="60" as="geometry" />
        </mxCell>
        <mxCell id="MmBOkWt7S69UZNBFQ9mI-71" value="brick:isLocationOf" style="text;html=1;strokeColor=none;fillColor=none;align=center;verticalAlign=middle;whiteSpace=wrap;rounded=0;fontSize=14;fontStyle=1" parent="MmBOkWt7S69UZNBFQ9mI-1" vertex="1">
          <mxGeometry x="1260" y="123" width="110" height="30" as="geometry" />
        </mxCell>
        <mxCell id="MmBOkWt7S69UZNBFQ9mI-72" value="brick:isLocationOf" style="text;html=1;strokeColor=none;fillColor=none;align=center;verticalAlign=middle;whiteSpace=wrap;rounded=0;fontSize=14;fontStyle=1" parent="MmBOkWt7S69UZNBFQ9mI-1" vertex="1">
          <mxGeometry x="1030" y="424" width="110" height="30" as="geometry" />
        </mxCell>
        <mxCell id="MmBOkWt7S69UZNBFQ9mI-73" value="brick:hasPoint" style="text;html=1;strokeColor=none;fillColor=none;align=center;verticalAlign=middle;whiteSpace=wrap;rounded=0;fontSize=14;fontStyle=1" parent="MmBOkWt7S69UZNBFQ9mI-1" vertex="1">
          <mxGeometry x="310" y="445.5" width="110" height="30" as="geometry" />
        </mxCell>
        <mxCell id="MmBOkWt7S69UZNBFQ9mI-74" style="edgeStyle=orthogonalEdgeStyle;rounded=0;orthogonalLoop=1;jettySize=auto;html=1;exitX=0.25;exitY=0;exitDx=0;exitDy=0;entryX=1;entryY=0.75;entryDx=0;entryDy=0;" parent="MmBOkWt7S69UZNBFQ9mI-1" source="MmBOkWt7S69UZNBFQ9mI-76" target="MmBOkWt7S69UZNBFQ9mI-47" edge="1">
          <mxGeometry relative="1" as="geometry">
            <Array as="points">
              <mxPoint x="710" y="554" />
              <mxPoint x="710" y="427" />
            </Array>
          </mxGeometry>
        </mxCell>
        <mxCell id="MmBOkWt7S69UZNBFQ9mI-75" style="edgeStyle=orthogonalEdgeStyle;rounded=0;orthogonalLoop=1;jettySize=auto;html=1;exitX=0.25;exitY=1;exitDx=0;exitDy=0;entryX=0.75;entryY=0;entryDx=0;entryDy=0;" parent="MmBOkWt7S69UZNBFQ9mI-1" source="MmBOkWt7S69UZNBFQ9mI-76" target="MmBOkWt7S69UZNBFQ9mI-80" edge="1">
          <mxGeometry relative="1" as="geometry" />
        </mxCell>
        <mxCell id="MmBOkWt7S69UZNBFQ9mI-76" value="&lt;font style=&quot;font-size: 18px;&quot;&gt;occ##_pheater&lt;/font&gt;" style="rounded=1;whiteSpace=wrap;html=1;fillColor=#008a00;strokeColor=#005700;fontColor=#ffffff;fontStyle=1" parent="MmBOkWt7S69UZNBFQ9mI-1" vertex="1">
          <mxGeometry x="690" y="554" width="140" height="60" as="geometry" />
        </mxCell>
        <mxCell id="MmBOkWt7S69UZNBFQ9mI-77" value="brick:hasPoint" style="text;html=1;strokeColor=none;fillColor=none;align=center;verticalAlign=middle;whiteSpace=wrap;rounded=0;fontSize=14;fontStyle=1" parent="MmBOkWt7S69UZNBFQ9mI-1" vertex="1">
          <mxGeometry x="940" y="241" width="110" height="30" as="geometry" />
        </mxCell>
        <mxCell id="MmBOkWt7S69UZNBFQ9mI-78" value="occ:isAccessibleBy" style="text;html=1;strokeColor=none;fillColor=none;align=center;verticalAlign=middle;whiteSpace=wrap;rounded=0;fontSize=14;fontStyle=1" parent="MmBOkWt7S69UZNBFQ9mI-1" vertex="1">
          <mxGeometry x="730" y="412" width="110" height="30" as="geometry" />
        </mxCell>
        <mxCell id="MmBOkWt7S69UZNBFQ9mI-79" value="occ:isAccessibleBy" style="text;html=1;strokeColor=none;fillColor=none;align=center;verticalAlign=middle;whiteSpace=wrap;rounded=0;fontSize=14;fontStyle=1" parent="MmBOkWt7S69UZNBFQ9mI-1" vertex="1">
          <mxGeometry x="540" y="420" width="110" height="30" as="geometry" />
        </mxCell>
        <mxCell id="MmBOkWt7S69UZNBFQ9mI-80" value="&lt;font style=&quot;font-size: 20px;&quot;&gt;occ##_ph_power&lt;/font&gt;" style="rounded=1;whiteSpace=wrap;html=1;fillColor=#f5f5f5;strokeColor=#666666;fontColor=#333333;fontStyle=1" parent="MmBOkWt7S69UZNBFQ9mI-1" vertex="1">
          <mxGeometry x="630" y="641.5" width="160" height="25" as="geometry" />
        </mxCell>
        <mxCell id="MmBOkWt7S69UZNBFQ9mI-81" value="&lt;font style=&quot;font-size: 20px;&quot;&gt;occ##_pf_power&lt;/font&gt;" style="rounded=1;whiteSpace=wrap;html=1;fillColor=#f5f5f5;strokeColor=#666666;fontColor=#333333;fontStyle=1" parent="MmBOkWt7S69UZNBFQ9mI-1" vertex="1">
          <mxGeometry x="870" y="641.5" width="160" height="25" as="geometry" />
        </mxCell>
        <mxCell id="MmBOkWt7S69UZNBFQ9mI-82" value="brick:hasPoint" style="text;html=1;strokeColor=none;fillColor=none;align=center;verticalAlign=middle;whiteSpace=wrap;rounded=0;fontSize=14;fontStyle=1" parent="MmBOkWt7S69UZNBFQ9mI-1" vertex="1">
          <mxGeometry x="640" y="614" width="110" height="30" as="geometry" />
        </mxCell>
        <mxCell id="MmBOkWt7S69UZNBFQ9mI-83" value="brick:hasPoint" style="text;html=1;strokeColor=none;fillColor=none;align=center;verticalAlign=middle;whiteSpace=wrap;rounded=0;fontSize=14;fontStyle=1" parent="MmBOkWt7S69UZNBFQ9mI-1" vertex="1">
          <mxGeometry x="950" y="611.5" width="110" height="30" as="geometry" />
        </mxCell>
        <mxCell id="MmBOkWt7S69UZNBFQ9mI-84" value="brick:isLocationOf" style="text;html=1;strokeColor=none;fillColor=none;align=center;verticalAlign=middle;whiteSpace=wrap;rounded=0;fontSize=14;fontStyle=1" parent="MmBOkWt7S69UZNBFQ9mI-1" vertex="1">
          <mxGeometry x="1040" y="464" width="110" height="30" as="geometry" />
        </mxCell>
        <mxCell id="MmBOkWt7S69UZNBFQ9mI-85" value="brick:isLocationOf" style="text;html=1;strokeColor=none;fillColor=none;align=center;verticalAlign=middle;whiteSpace=wrap;rounded=0;fontSize=14;fontStyle=1" parent="MmBOkWt7S69UZNBFQ9mI-1" vertex="1">
          <mxGeometry x="1080" y="654" width="110" height="30" as="geometry" />
        </mxCell>
        <mxCell id="MmBOkWt7S69UZNBFQ9mI-86" value="&lt;b style=&quot;&quot;&gt;&lt;font style=&quot;font-size: 16px;&quot;&gt;* Occupant related equipment and datapoint names can be derived by changing `##`.&amp;nbsp;&amp;nbsp;&lt;/font&gt;&lt;/b&gt;" style="text;html=1;strokeColor=none;fillColor=none;align=left;verticalAlign=middle;whiteSpace=wrap;rounded=0;" parent="MmBOkWt7S69UZNBFQ9mI-1" vertex="1">
          <mxGeometry x="1260" y="612" width="250" height="42" as="geometry" />
        </mxCell>
        <mxCell id="MmBOkWt7S69UZNBFQ9mI-87" value="&lt;font style=&quot;font-size: 18px;&quot;&gt;Location&lt;/font&gt;" style="rounded=1;whiteSpace=wrap;html=1;fillColor=#a20025;strokeColor=#6F0000;fontColor=#ffffff;fontStyle=1;flipV=1;" parent="MmBOkWt7S69UZNBFQ9mI-1" vertex="1">
          <mxGeometry x="1360" y="226" width="120" height="60" as="geometry" />
        </mxCell>
        <mxCell id="MmBOkWt7S69UZNBFQ9mI-88" value="&lt;font style=&quot;font-size: 18px;&quot;&gt;Equipment&lt;/font&gt;" style="rounded=1;whiteSpace=wrap;html=1;fillColor=#008a00;strokeColor=#005700;fontColor=#ffffff;fontStyle=1;flipV=1;" parent="MmBOkWt7S69UZNBFQ9mI-1" vertex="1">
          <mxGeometry x="1360" y="299" width="120" height="60" as="geometry" />
        </mxCell>
        <mxCell id="MmBOkWt7S69UZNBFQ9mI-89" value="&lt;span style=&quot;font-size: 18px;&quot;&gt;Occupant&lt;/span&gt;" style="rounded=1;whiteSpace=wrap;html=1;fillColor=#1ba1e2;strokeColor=#006EAF;fontColor=#ffffff;fontStyle=1;flipV=1;" parent="MmBOkWt7S69UZNBFQ9mI-1" vertex="1">
          <mxGeometry x="1360" y="372" width="120" height="60" as="geometry" />
        </mxCell>
        <mxCell id="MmBOkWt7S69UZNBFQ9mI-90" value="&lt;span style=&quot;font-size: 18px;&quot;&gt;Point&lt;/span&gt;" style="rounded=1;whiteSpace=wrap;html=1;fillColor=#f5f5f5;strokeColor=#666666;fontStyle=1;fontColor=#333333;flipV=1;" parent="MmBOkWt7S69UZNBFQ9mI-1" vertex="1">
          <mxGeometry x="1360" y="444.5" width="120" height="60" as="geometry" />
        </mxCell>
        <mxCell id="MmBOkWt7S69UZNBFQ9mI-91" value="" style="rounded=0;whiteSpace=wrap;html=1;fillColor=none;fontStyle=1" parent="MmBOkWt7S69UZNBFQ9mI-1" vertex="1">
          <mxGeometry x="1350" y="215.93" width="140" height="304.07" as="geometry" />
        </mxCell>
        <mxCell id="MmBOkWt7S69UZNBFQ9mI-92" value="&lt;b style=&quot;border-color: var(--border-color);&quot;&gt;&lt;font style=&quot;font-size: 22px;&quot;&gt;LEGEND&lt;/font&gt;&lt;/b&gt;" style="text;html=1;strokeColor=none;fillColor=none;align=center;verticalAlign=middle;whiteSpace=wrap;rounded=0;" parent="MmBOkWt7S69UZNBFQ9mI-1" vertex="1">
          <mxGeometry x="1355" y="183" width="130" height="30" as="geometry" />
        </mxCell>
        <mxCell id="MmBOkWt7S69UZNBFQ9mI-93" value="&lt;font style=&quot;font-size: 20px;&quot;&gt;grid_signal_type&lt;/font&gt;" style="rounded=1;whiteSpace=wrap;html=1;fillColor=#f5f5f5;strokeColor=#666666;fontColor=#333333;fontStyle=1" parent="MmBOkWt7S69UZNBFQ9mI-1" vertex="1">
          <mxGeometry x="340" y="123" width="170" height="25" as="geometry" />
        </mxCell>
        <mxCell id="MmBOkWt7S69UZNBFQ9mI-94" value="&lt;font style=&quot;font-size: 20px;&quot;&gt;grid_signal_shed&lt;/font&gt;" style="rounded=1;whiteSpace=wrap;html=1;fillColor=#f5f5f5;strokeColor=#666666;fontColor=#333333;fontStyle=1" parent="MmBOkWt7S69UZNBFQ9mI-1" vertex="1">
          <mxGeometry x="340" y="153" width="170" height="25" as="geometry" />
        </mxCell>
        <mxCell id="MmBOkWt7S69UZNBFQ9mI-95" value="&lt;font style=&quot;font-size: 20px;&quot;&gt;grid_signal_price&lt;/font&gt;" style="rounded=1;whiteSpace=wrap;html=1;fillColor=#f5f5f5;strokeColor=#666666;fontColor=#333333;fontStyle=1" parent="MmBOkWt7S69UZNBFQ9mI-1" vertex="1">
          <mxGeometry x="340" y="181.5" width="170" height="25" as="geometry" />
        </mxCell>
        <mxCell id="MmBOkWt7S69UZNBFQ9mI-96" value="&lt;b style=&quot;border-color: var(--border-color);&quot;&gt;&lt;font style=&quot;font-size: 22px;&quot;&gt;NOTES&lt;/font&gt;&lt;/b&gt;" style="text;html=1;strokeColor=none;fillColor=none;align=left;verticalAlign=middle;whiteSpace=wrap;rounded=0;" parent="MmBOkWt7S69UZNBFQ9mI-1" vertex="1">
          <mxGeometry x="1260" y="569" width="130" height="30" as="geometry" />
        </mxCell>
      </root>
    </mxGraphModel>
  </diagram>
</mxfile>
